<svg xmlns="http://www.w3.org/2000/svg" viewBox="0 0 320 180">
  <defs>
    <linearGradient id="bg" x1="0%" y1="0%" x2="100%" y2="100%">
      <stop offset="0%" style="stop-color:#1a1a3e"/>
      <stop offset="100%" style="stop-color:#312e81"/>
    </linearGradient>
  </defs>
  <rect width="320" height="180" fill="url(#bg)" rx="12"/>
  <rect x="0.5" y="0.5" width="319" height="179" fill="none" stroke="rgba(255,255,255,0.08)" rx="12"/>
  <rect x="12" y="18" width="90" height="90" fill="rgba(167,139,250,0.2)" stroke="rgba(167,139,250,0.4)" stroke-width="1.5" rx="12"/>
  <text x="57" y="80" font-size="50" text-anchor="middle">🐶</text>
  <rect x="118" y="18" width="84" height="38" fill="rgba(34,197,94,0.3)" stroke="#22c55e" stroke-width="1.5" rx="8"/>
  <text x="160" y="42" font-size="14" font-weight="700" fill="#fff" text-anchor="middle" font-family="sans-serif">강아지 ✓</text>
  <rect x="210" y="18" width="84" height="38" fill="rgba(255,255,255,0.08)" stroke="rgba(255,255,255,0.2)" stroke-width="1.5" rx="8"/>
  <text x="252" y="42" font-size="14" fill="rgba(255,255,255,0.7)" text-anchor="middle" font-family="sans-serif">고양이</text>
  <rect x="118" y="64" width="84" height="38" fill="rgba(255,255,255,0.08)" stroke="rgba(255,255,255,0.2)" stroke-width="1.5" rx="8"/>
  <text x="160" y="88" font-size="14" fill="rgba(255,255,255,0.7)" text-anchor="middle" font-family="sans-serif">토끼</text>
  <rect x="210" y="64" width="84" height="38" fill="rgba(255,255,255,0.08)" stroke="rgba(255,255,255,0.2)" stroke-width="1.5" rx="8"/>
  <text x="252" y="88" font-size="14" fill="rgba(255,255,255,0.7)" text-anchor="middle" font-family="sans-serif">곰</text>
  <circle cx="130" cy="125" r="6" fill="#22c55e"/>
  <circle cx="148" cy="125" r="6" fill="#22c55e"/>
  <circle cx="166" cy="125" r="6" fill="#22c55e"/>
  <circle cx="184" cy="125" r="6" fill="#ef4444"/>
  <circle cx="202" cy="125" r="6" fill="rgba(255,255,255,0.2)"/>
  <g font-family="'Pretendard','Noto Sans KR',sans-serif">
    <text x="296" y="148" text-anchor="end" font-size="19" font-weight="900" fill="#a78bfa">그림 단어 맞추기</text>
    <text x="296" y="166" text-anchor="end" font-size="10" font-weight="500" fill="rgba(255,255,255,0.5)" letter-spacing="2">WORD PICTURE MATCH</text>
  </g>
</svg>
