<svg xmlns="http://www.w3.org/2000/svg" viewBox="0 0 320 180">
  <defs>
    <radialGradient id="bg" cx="40%" cy="40%">
      <stop offset="0%" stop-color="#2d0b5c"/>
      <stop offset="100%" stop-color="#0d0022"/>
    </radialGradient>
    <radialGradient id="b1" cx="35%" cy="35%">
      <stop offset="0%" stop-color="#ff8c8c"/>
      <stop offset="100%" stop-color="#FF4B4B"/>
    </radialGradient>
    <radialGradient id="b2" cx="35%" cy="35%">
      <stop offset="0%" stop-color="#8caaff"/>
      <stop offset="100%" stop-color="#4B7FFF"/>
    </radialGradient>
    <radialGradient id="b3" cx="35%" cy="35%">
      <stop offset="0%" stop-color="#7bffa8"/>
      <stop offset="100%" stop-color="#3BCB6E"/>
    </radialGradient>
    <radialGradient id="b4" cx="35%" cy="35%">
      <stop offset="0%" stop-color="#ffe97a"/>
      <stop offset="100%" stop-color="#FFD234"/>
    </radialGradient>
    <radialGradient id="b5" cx="35%" cy="35%">
      <stop offset="0%" stop-color="#d47bff"/>
      <stop offset="100%" stop-color="#B44BFF"/>
    </radialGradient>
    <radialGradient id="b6" cx="35%" cy="35%">
      <stop offset="0%" stop-color="#ffba7a"/>
      <stop offset="100%" stop-color="#FF8C42"/>
    </radialGradient>
  </defs>

  <rect width="320" height="180" fill="url(#bg)"/>
  <rect x="0.5" y="0.5" width="319" height="179" fill="none" stroke="rgba(255,255,255,0.08)"/>

  <!-- 배경 별빛 -->
  <circle cx="20" cy="15" r="1.5" fill="rgba(255,255,255,0.5)"/>
  <circle cx="55" cy="8"  r="1"   fill="rgba(255,255,255,0.4)"/>
  <circle cx="300" cy="20" r="1.5" fill="rgba(255,255,255,0.5)"/>
  <circle cx="270" cy="35" r="1"   fill="rgba(255,255,255,0.35)"/>
  <circle cx="10"  cy="60" r="1"   fill="rgba(255,255,255,0.3)"/>

  <!-- 목표 색 표시판 -->
  <rect x="10" y="10" width="82" height="34" rx="10" fill="rgba(255,255,255,0.09)" stroke="rgba(255,255,255,0.22)" stroke-width="1"/>
  <text x="18" y="24" font-family="sans-serif" font-size="9" fill="rgba(255,255,255,0.65)">이 색을 잡아요!</text>
  <circle cx="72" cy="26" r="10" fill="url(#b1)" stroke="rgba(255,255,255,0.5)" stroke-width="1.5"/>
  <circle cx="72" cy="22" r="4"  fill="rgba(255,255,255,0.3)"/>

  <!-- 거품들 -->
  <circle cx="50"  cy="130" r="30" fill="url(#b1)" stroke="rgba(255,255,255,0.3)" stroke-width="1.5"/>
  <circle cx="50"  cy="118" r="10" fill="rgba(255,255,255,0.22)"/>

  <circle cx="118" cy="100" r="24" fill="url(#b2)" stroke="rgba(255,255,255,0.3)" stroke-width="1.5"/>
  <circle cx="118" cy="90"  r="8"  fill="rgba(255,255,255,0.22)"/>

  <circle cx="75"  cy="62"  r="18" fill="url(#b3)" stroke="rgba(255,255,255,0.3)" stroke-width="1.5"/>
  <circle cx="75"  cy="55"  r="6"  fill="rgba(255,255,255,0.22)"/>

  <circle cx="165" cy="140" r="22" fill="url(#b4)" stroke="rgba(255,255,255,0.3)" stroke-width="1.5"/>
  <circle cx="165" cy="131" r="7"  fill="rgba(255,255,255,0.22)"/>

  <circle cx="210" cy="95"  r="26" fill="url(#b5)" stroke="rgba(255,255,255,0.3)" stroke-width="1.5"/>
  <circle cx="210" cy="84"  r="9"  fill="rgba(255,255,255,0.22)"/>

  <circle cx="155" cy="55"  r="16" fill="url(#b6)" stroke="rgba(255,255,255,0.3)" stroke-width="1.5"/>
  <circle cx="155" cy="48"  r="5"  fill="rgba(255,255,255,0.22)"/>

  <!-- 터치 이펙트 -->
  <text x="30" y="152" font-size="18">🎊</text>
  <text x="185" y="60"  font-size="14">✨</text>

  <!-- 타이틀 -->
  <g font-family="'Pretendard','Noto Sans KR',sans-serif">
    <text x="296" y="148" text-anchor="end" font-size="20" font-weight="900" fill="#ff6fd8">색깔 거품 잡기</text>
    <text x="296" y="166" text-anchor="end" font-size="10" font-weight="500" fill="rgba(255,255,255,0.5)" letter-spacing="2">COLOR BUBBLE CATCH</text>
  </g>
</svg>
