<svg xmlns="http://www.w3.org/2000/svg" viewBox="0 0 120 120" width="120" height="120">
  <!-- 하늘 배경 -->
  <rect width="120" height="120" rx="18" fill="#87CEEB"/>
  <!-- 잔디 -->
  <rect x="0" y="88" width="120" height="32" rx="0" fill="#4A8A30"/>
  <rect x="0" y="85" width="120" height="8" rx="0" fill="#5AA340"/>

  <!-- 나무 (왼쪽) -->
  <rect x="8" y="70" width="7" height="20" rx="2" fill="#7B4F2E"/>
  <ellipse cx="15" cy="65" rx="14" ry="14" fill="#3E8A2A"/>
  <ellipse cx="12" cy="60" rx="8" ry="8" fill="#4EA832"/>

  <!-- 나무 (오른쪽) -->
  <rect x="105" y="70" width="7" height="20" rx="2" fill="#7B4F2E"/>
  <ellipse cx="105" cy="65" rx="14" ry="14" fill="#3E8A2A"/>
  <ellipse cx="108" cy="60" rx="8" ry="8" fill="#4EA832"/>

  <!-- 사과 (떨어지는) -->
  <!-- 사과 1 (큰 것, 중앙) -->
  <circle cx="62" cy="30" r="14" fill="#E82020"/>
  <circle cx="57" cy="25" r="4" fill="rgba(255,255,255,0.4)"/>
  <path d="M62 16 C64 10 72 11 70 17" stroke="#5A3010" stroke-width="2.5" fill="none" stroke-linecap="round"/>
  <ellipse cx="68" cy="14" rx="5" ry="2.5" transform="rotate(-20,68,14)" fill="#4CAF50"/>

  <!-- 사과 2 (작은 것, 왼쪽 위) -->
  <circle cx="28" cy="18" r="9" fill="#E82020"/>
  <circle cx="25" cy="14" r="2.5" fill="rgba(255,255,255,0.4)"/>
  <path d="M28 9 C29 5 35 6 33 10" stroke="#5A3010" stroke-width="2" fill="none" stroke-linecap="round"/>
  <ellipse cx="33" cy="8" rx="4" ry="2" transform="rotate(-20,33,8)" fill="#4CAF50"/>

  <!-- 바구니 -->
  <!-- 상단 림 -->
  <ellipse cx="62" cy="83" rx="28" ry="6" fill="#DCA060"/>
  <ellipse cx="62" cy="83" rx="28" ry="6" fill="none" stroke="#5A3A10" stroke-width="2"/>
  <!-- 몸통 사다리꼴 -->
  <polygon points="34,83 90,83 82,108 42,108" fill="#C68642"/>
  <polygon points="34,83 90,83 82,108 42,108" fill="none" stroke="#5A3A10" stroke-width="2"/>
  <!-- 격자선 수평 -->
  <line x1="37" y1="92" x2="87" y2="92" stroke="rgba(90,58,16,0.4)" stroke-width="1.5"/>
  <line x1="40" y1="101" x2="84" y2="101" stroke="rgba(90,58,16,0.4)" stroke-width="1.5"/>
  <!-- 격자선 수직 -->
  <line x1="50" y1="83" x2="47" y2="108" stroke="rgba(90,58,16,0.35)" stroke-width="1.5"/>
  <line x1="62" y1="83" x2="62" y2="108" stroke="rgba(90,58,16,0.35)" stroke-width="1.5"/>
  <line x1="74" y1="83" x2="77" y2="108" stroke="rgba(90,58,16,0.35)" stroke-width="1.5"/>

  <!-- 파티클 (catch 효과) -->
  <circle cx="85" cy="68" r="3" fill="#FFEB3B" opacity="0.9"/>
  <circle cx="92" cy="58" r="2" fill="#FF9800" opacity="0.8"/>
  <circle cx="78" cy="55" r="2.5" fill="#FF4444" opacity="0.7"/>
  <circle cx="90" cy="72" r="2" fill="#4CAF50" opacity="0.8"/>
</svg>
