<svg xmlns="http://www.w3.org/2000/svg" viewBox="0 0 320 180">
  <defs>
    <linearGradient id="sky" x1="0" y1="0" x2="0" y2="1">
      <stop offset="0" stop-color="#1b4a7a"/>
      <stop offset="1" stop-color="#0a1730"/>
    </linearGradient>
  </defs>
  <rect width="320" height="180" fill="url(#sky)"/>
  <rect x="0.5" y="0.5" width="319" height="179" fill="none" stroke="rgba(255,255,255,0.08)"/>
  <ellipse cx="62" cy="48" rx="26" ry="11" fill="rgba(255,255,255,0.12)"/>
  <ellipse cx="244" cy="40" rx="30" ry="12" fill="rgba(255,255,255,0.10)"/>
  <path d="M70 62 A40 40 0 0 1 150 62 Z" fill="#e0354b"/>
  <path d="M70 62 A40 40 0 0 1 150 62" fill="none" stroke="#ffffff" stroke-width="2" opacity="0.5"/>
  <line x1="74" y1="62" x2="108" y2="94" stroke="rgba(255,255,255,0.6)" stroke-width="1.5"/>
  <line x1="110" y1="62" x2="110" y2="94" stroke="rgba(255,255,255,0.6)" stroke-width="1.5"/>
  <line x1="146" y1="62" x2="112" y2="94" stroke="rgba(255,255,255,0.6)" stroke-width="1.5"/>
  <circle cx="110" cy="100" r="7" fill="#ffd36b"/>
  <rect x="105" y="106" width="10" height="14" rx="4" fill="#ffd36b"/>
  <rect x="120" y="158" width="80" height="10" rx="3" fill="#2fbf71"/>
  <text x="160" y="166" text-anchor="middle" font-size="8" font-weight="900" fill="#0a1730">H</text>
  <g font-family="'Pretendard','Noto Sans KR',sans-serif">
    <text x="296" y="142" text-anchor="end" font-size="20" font-weight="900" fill="#88ccff">낙하산 착륙</text>
    <text x="296" y="160" text-anchor="end" font-size="9" font-weight="500" fill="rgba(255,255,255,0.5)" letter-spacing="2">PARACHUTE</text>
  </g>
</svg>
