<svg xmlns="http://www.w3.org/2000/svg" viewBox="0 0 320 180">
  <defs>
    <linearGradient id="bg" x1="0%" y1="0%" x2="100%" y2="100%">
      <stop offset="0%" style="stop-color:#0a0a2e"/>
      <stop offset="100%" style="stop-color:#1a0a3e"/>
    </linearGradient>
    <radialGradient id="glow" cx="50%" cy="50%" r="50%">
      <stop offset="0%" style="stop-color:#f7c948;stop-opacity:0.4"/>
      <stop offset="100%" style="stop-color:#f7c948;stop-opacity:0"/>
    </radialGradient>
  </defs>
  <rect width="320" height="180" fill="url(#bg)"/>
  <rect x="0.5" y="0.5" width="319" height="179" fill="none" stroke="rgba(255,255,255,0.08)"/>
  <!-- 배경 작은 별들 -->
  <circle cx="20" cy="25" r="1.2" fill="rgba(255,255,255,0.5)"/>
  <circle cx="55" cy="12" r="0.8" fill="rgba(255,255,255,0.4)"/>
  <circle cx="90" cy="40" r="1.5" fill="rgba(255,255,255,0.3)"/>
  <circle cx="130" cy="18" r="1.0" fill="rgba(255,255,255,0.6)"/>
  <circle cx="180" cy="30" r="1.2" fill="rgba(255,255,255,0.4)"/>
  <circle cx="230" cy="15" r="0.8" fill="rgba(255,255,255,0.5)"/>
  <circle cx="290" cy="35" r="1.0" fill="rgba(255,255,255,0.3)"/>
  <circle cx="40" cy="120" r="0.9" fill="rgba(255,255,255,0.35)"/>
  <circle cx="75" cy="155" r="1.3" fill="rgba(255,255,255,0.4)"/>
  <circle cx="250" cy="145" r="0.8" fill="rgba(255,255,255,0.3)"/>
  <circle cx="310" cy="110" r="1.1" fill="rgba(255,255,255,0.45)"/>
  <!-- 마법 파티클 원호 (그린 흔적) -->
  <path d="M 55 95 Q 80 55 115 75 Q 145 90 130 120 Q 115 148 80 140 Q 52 128 55 95"
        fill="none" stroke="rgba(247,201,72,0.5)" stroke-width="3" stroke-linecap="round"/>
  <!-- 별 1 (큰) -->
  <g transform="translate(92,108)">
    <polygon points="0,-22 5.2,-7.5 20.9,-6.8 8.5,2.8 13.0,18.5 0,10.0 -13.0,18.5 -8.5,2.8 -20.9,-6.8 -5.2,-7.5"
             fill="#f7c948" opacity="0.95"/>
    <polygon points="0,-22 5.2,-7.5 20.9,-6.8 8.5,2.8 13.0,18.5 0,10.0 -13.0,18.5 -8.5,2.8 -20.9,-6.8 -5.2,-7.5"
             fill="none" stroke="rgba(255,255,255,0.4)" stroke-width="1"/>
  </g>
  <!-- 별 2 (중간, 분홍) -->
  <g transform="translate(148,62)">
    <polygon points="0,-15 3.5,-5.1 14.3,-4.6 5.8,1.9 8.8,12.6 0,6.8 -8.8,12.6 -5.8,1.9 -14.3,-4.6 -3.5,-5.1"
             fill="#ff6b9d" opacity="0.9"/>
  </g>
  <!-- 별 3 (작은, 파랑) -->
  <g transform="translate(62,60)">
    <polygon points="0,-11 2.6,-3.8 10.5,-3.4 4.2,1.4 6.5,9.3 0,5.0 -6.5,9.3 -4.2,1.4 -10.5,-3.4 -2.6,-3.8"
             fill="#00d4ff" opacity="0.85"/>
  </g>
  <!-- 글로우 -->
  <circle cx="92" cy="108" r="35" fill="url(#glow)"/>
  <!-- 파티클 점들 -->
  <circle cx="118" cy="78" r="3" fill="#f7c948" opacity="0.8"/>
  <circle cx="72" cy="88" r="2.5" fill="#ff6b9d" opacity="0.7"/>
  <circle cx="108" cy="138" r="2" fill="#00d4ff" opacity="0.6"/>
  <circle cx="130" cy="96" r="2.5" fill="#7fff00" opacity="0.7"/>
  <circle cx="58" cy="78" r="2" fill="#c084fc" opacity="0.65"/>
  <!-- 색 팔레트 힌트 -->
  <circle cx="22" cy="160" r="7" fill="#f7c948"/>
  <circle cx="38" cy="160" r="7" fill="#ff6b9d"/>
  <circle cx="54" cy="160" r="7" fill="#00d4ff"/>
  <circle cx="70" cy="160" r="7" fill="#7fff00"/>
  <circle cx="86" cy="160" r="7" fill="#c084fc"/>
  <!-- 제목 -->
  <g font-family="'Pretendard','Noto Sans KR',sans-serif">
    <text x="296" y="148" text-anchor="end" font-size="22" font-weight="900" fill="#f7c948">마법 지팡이</text>
    <text x="296" y="166" text-anchor="end" font-size="10" font-weight="500" fill="rgba(255,255,255,0.5)" letter-spacing="2">MAGIC WAND</text>
  </g>
</svg>
