<svg xmlns="http://www.w3.org/2000/svg" viewBox="0 0 320 180">
  <defs>
    <linearGradient id="bg" x1="0" y1="0" x2="1" y2="1">
      <stop offset="0%" stop-color="#2a0a2a"/>
      <stop offset="100%" stop-color="#1a0533"/>
    </linearGradient>
  </defs>
  <rect width="320" height="180" fill="url(#bg)"/>
  <rect x="0.5" y="0.5" width="319" height="179" fill="none" stroke="rgba(255,255,255,0.08)"/>

  <!-- 공주 실루엣 -->
  <!-- 드레스 -->
  <ellipse cx="110" cy="130" rx="48" ry="42" fill="#e91e8c" opacity="0.9"/>
  <ellipse cx="110" cy="130" rx="48" ry="42" fill="none" stroke="#ff69b4" stroke-width="1.5"/>
  <!-- 상체 -->
  <rect x="96" y="72" width="28" height="36" rx="8" fill="#ffb6c1"/>
  <!-- 얼굴 -->
  <circle cx="110" cy="60" r="20" fill="#ffe4c4"/>
  <!-- 왕관 -->
  <text x="110" y="42" text-anchor="middle" font-size="22">👑</text>
  <!-- 머리카락 -->
  <ellipse cx="110" cy="55" rx="22" ry="12" fill="#8B4513"/>

  <!-- 아이템 카드들 -->
  <rect x="175" y="18" width="36" height="36" rx="8" fill="rgba(255,105,180,0.3)" stroke="#ff69b4" stroke-width="1.5"/>
  <text x="193" y="43" text-anchor="middle" font-size="20">👒</text>

  <rect x="220" y="18" width="36" height="36" rx="8" fill="rgba(255,215,0,0.3)" stroke="#ffd700" stroke-width="1.5"/>
  <text x="238" y="43" text-anchor="middle" font-size="20">💍</text>

  <rect x="265" y="18" width="36" height="36" rx="8" fill="rgba(162,155,254,0.3)" stroke="#a29bfe" stroke-width="1.5"/>
  <text x="283" y="43" text-anchor="middle" font-size="20">👗</text>

  <rect x="175" y="64" width="36" height="36" rx="8" fill="rgba(72,219,251,0.3)" stroke="#48dbfb" stroke-width="1.5"/>
  <text x="193" y="89" text-anchor="middle" font-size="20">👠</text>

  <rect x="220" y="64" width="36" height="36" rx="8" fill="rgba(255,107,107,0.3)" stroke="#ff6b6b" stroke-width="1.5"/>
  <text x="238" y="89" text-anchor="middle" font-size="20">💄</text>

  <rect x="265" y="64" width="36" height="36" rx="8" fill="rgba(38,222,129,0.3)" stroke="#26de81" stroke-width="1.5"/>
  <text x="283" y="89" text-anchor="middle" font-size="20">💎</text>

  <!-- 반짝이 -->
  <text x="160" y="35" font-size="12">✨</text>
  <text x="168" y="120" font-size="10">✨</text>

  <!-- 타이틀 -->
  <g font-family="'Pretendard','Noto Sans KR',sans-serif">
    <text x="296" y="148" text-anchor="end" font-size="22" font-weight="900" fill="#ffd700">공주 드레스업</text>
    <text x="296" y="166" text-anchor="end" font-size="10" font-weight="500" fill="rgba(255,255,255,0.5)" letter-spacing="2">PRINCESS DRESS-UP</text>
  </g>
</svg>
