<svg xmlns="http://www.w3.org/2000/svg" viewBox="0 0 320 180" width="320" height="180">
  <defs>
    <linearGradient id="sky" x1="0" y1="0" x2="0" y2="1">
      <stop offset="0%" stop-color="#87ceeb"/>
      <stop offset="60%" stop-color="#6fb04c"/>
      <stop offset="100%" stop-color="#1e4d2b"/>
    </linearGradient>
  </defs>
  <rect width="320" height="180" fill="url(#sky)"/>
  <rect x="0.5" y="0.5" width="319" height="179" fill="none" stroke="rgba(255,255,255,0.08)"/>

  <g transform="translate(30, 110)">
    <circle cx="6" cy="0" r="6" fill="#ff8a8a"/>
    <circle cx="0" cy="-4" r="6" fill="#ff8a8a"/>
    <circle cx="12" cy="-4" r="6" fill="#ff8a8a"/>
    <circle cx="6" cy="-9" r="6" fill="#ff8a8a"/>
    <circle cx="6" cy="-4" r="4" fill="#ffe066"/>
  </g>
  <g transform="translate(85, 75)">
    <circle cx="6" cy="0" r="6" fill="#ff66cc"/>
    <circle cx="0" cy="-4" r="6" fill="#ff66cc"/>
    <circle cx="12" cy="-4" r="6" fill="#ff66cc"/>
    <circle cx="6" cy="-9" r="6" fill="#ff66cc"/>
    <circle cx="6" cy="-4" r="4" fill="#ffe066"/>
  </g>
  <g transform="translate(60, 140)">
    <circle cx="6" cy="0" r="6" fill="#fff"/>
    <circle cx="0" cy="-4" r="6" fill="#fff"/>
    <circle cx="12" cy="-4" r="6" fill="#fff"/>
    <circle cx="6" cy="-9" r="6" fill="#fff"/>
    <circle cx="6" cy="-4" r="4" fill="#ffe066"/>
  </g>

  <g transform="translate(140, 60)">
    <ellipse cx="0" cy="0" rx="20" ry="14" fill="#ffe066"/>
    <ellipse cx="0" cy="0" rx="20" ry="14" fill="none" stroke="#000" stroke-width="2"/>
    <line x1="-8" y1="-14" x2="-8" y2="14" stroke="#000" stroke-width="3"/>
    <line x1="6" y1="-14" x2="6" y2="14" stroke="#000" stroke-width="3"/>
    <ellipse cx="-10" cy="-12" rx="14" ry="10" fill="rgba(255,255,255,0.7)"/>
    <ellipse cx="10" cy="-12" rx="14" ry="10" fill="rgba(255,255,255,0.7)"/>
    <circle cx="-6" cy="-2" r="2" fill="#000"/>
    <circle cx="6" cy="-2" r="2" fill="#000"/>
    <path d="M -20 8 L -26 6" stroke="#000" stroke-width="1.5"/>
    <path d="M -20 4 L -26 0" stroke="#000" stroke-width="1.5"/>

    <circle cx="30" cy="-10" r="3" fill="#ffe066" opacity="0.8"/>
    <circle cx="36" cy="-18" r="2.5" fill="#ffe066" opacity="0.7"/>
    <circle cx="42" cy="-12" r="2" fill="#ffe066" opacity="0.6"/>
  </g>

  <g transform="translate(245, 100)">
    <rect x="0" y="10" width="40" height="35" rx="6" fill="#a87850"/>
    <polygon points="-2,12 20,-5 42,12" fill="#8b5a2b"/>
    <circle cx="20" cy="28" r="6" fill="#2d1b0e"/>
    <line x1="0" y1="20" x2="40" y2="20" stroke="#7a5638" stroke-width="1"/>
    <line x1="0" y1="32" x2="40" y2="32" stroke="#7a5638" stroke-width="1"/>
  </g>

  <g font-family="'Pretendard','Noto Sans KR',sans-serif">
    <text x="296" y="148" text-anchor="end" font-size="22" font-weight="900" fill="#ffe066">꿀벌 꽃가루</text>
    <text x="296" y="166" text-anchor="end" font-size="10" font-weight="500" fill="rgba(255,255,255,0.6)" letter-spacing="2">BEE POLLEN</text>
  </g>
</svg>
