<svg xmlns="http://www.w3.org/2000/svg" viewBox="0 0 320 180">
  <defs>
    <linearGradient id="bg" x1="0" y1="0" x2="0" y2="1">
      <stop offset="0" stop-color="#eaf7ff"/>
      <stop offset="1" stop-color="#cde9ff"/>
    </linearGradient>
    <linearGradient id="track" x1="0" y1="0" x2="1" y2="0">
      <stop offset="0" stop-color="#4a617d"/>
      <stop offset="1" stop-color="#31465f"/>
    </linearGradient>
  </defs>
  <rect width="320" height="180" fill="url(#bg)"/>
  <rect x="0.5" y="0.5" width="319" height="179" fill="none" stroke="rgba(255,255,255,0.08)"/>
  <circle cx="265" cy="32" r="15" fill="#ffe066"/>
  <path d="M42 88h210" stroke="url(#track)" stroke-width="18" stroke-linecap="round"/>
  <path d="M78 88v48" stroke="url(#track)" stroke-width="14" stroke-linecap="round"/>
  <path d="M160 88v48" stroke="url(#track)" stroke-width="14" stroke-linecap="round"/>
  <path d="M242 88v48" stroke="url(#track)" stroke-width="14" stroke-linecap="round"/>
  <g fill="#ffffff" opacity="0.3">
    <rect x="54" y="80" width="10" height="16" rx="4"/>
    <rect x="90" y="80" width="10" height="16" rx="4"/>
    <rect x="126" y="80" width="10" height="16" rx="4"/>
    <rect x="162" y="80" width="10" height="16" rx="4"/>
    <rect x="198" y="80" width="10" height="16" rx="4"/>
    <rect x="234" y="80" width="10" height="16" rx="4"/>
  </g>
  <g>
    <rect x="48" y="56" width="46" height="44" rx="14" fill="#ffb347" stroke="#fff" stroke-width="4"/>
    <text x="71" y="86" text-anchor="middle" font-size="24">🚂</text>
    <rect x="104" y="58" width="40" height="40" rx="12" fill="#ff8787" stroke="#fff" stroke-width="4"/>
    <text x="124" y="84" text-anchor="middle" font-size="21">🍎</text>
    <rect x="152" y="58" width="40" height="40" rx="12" fill="#74c0fc" stroke="#fff" stroke-width="4"/>
    <text x="172" y="84" text-anchor="middle" font-size="21">🐟</text>
    <rect x="200" y="58" width="40" height="40" rx="12" fill="#ffd43b" stroke="#fff" stroke-width="4"/>
    <text x="220" y="84" text-anchor="middle" font-size="21">⭐</text>
  </g>
  <g font-family="'Pretendard','Noto Sans KR',sans-serif">
    <text x="296" y="148" text-anchor="end" font-size="22" font-weight="900" fill="#20415f">큐큐 기차역</text>
    <text x="296" y="166" text-anchor="end" font-size="10" font-weight="600" fill="rgba(32,65,95,0.6)" letter-spacing="2">QUEUE TRAIN</text>
  </g>
</svg>
